HIERARCHY
ROOT hip
{
  OFFSET 17.9283 80.2092 252.017
  CHANNELS 6 Xposition Yposition Zposition Zrotation Xrotation Yrotation
  JOINT abdomen
  {
    OFFSET 0 20.6881 -0.73152
    CHANNELS 3 Zrotation Xrotation Yrotation
    JOINT chest
    {
      OFFSET 0 11.7043 -0.48768
      CHANNELS 3 Zrotation Xrotation Yrotation
      JOINT neck
      {
        OFFSET 0 22.1894 -2.19456
        CHANNELS 3 Zrotation Xrotation Yrotation
        JOINT head
        {
          OFFSET -0.24384 7.07133 1.2192
          CHANNELS 3 Zrotation Xrotation Yrotation
          JOINT leftEye
          {
            OFFSET 4.14528 8.04674 8.04672
            CHANNELS 3 Zrotation Xrotation Yrotation
            End Site
            {
              OFFSET 1 0 0
            }
          }
          JOINT rightEye
          {
            OFFSET -3.6576 8.04674 8.04672
            CHANNELS 3 Zrotation Xrotation Yrotation
            End Site
            {
              OFFSET 1 0 0
            }
          }
        }
      }
      JOINT rCollar
      {
        OFFSET -2.68224 19.2634 -4.8768
        CHANNELS 3 Zrotation Xrotation Yrotation
        JOINT rShldr
        {
          OFFSET -8.77824 -1.95073 1.46304
          CHANNELS 3 Zrotation Xrotation Yrotation
          JOINT rForeArm
          {
            OFFSET -28.1742 -1.7115 0.48768
            CHANNELS 3 Zrotation Xrotation Yrotation
            JOINT rHand
            {
              OFFSET -22.5879 0.773209 7.07136
              CHANNELS 3 Zrotation Xrotation Yrotation
              JOINT rThumb1
              {
                OFFSET -1.2192 -0.487915 3.41376
                CHANNELS 3 Zrotation Xrotation Yrotation
                JOINT rThumb2
                {
                  OFFSET -3.37035 -0.52449 3.41376
                  CHANNELS 3 Zrotation Xrotation Yrotation
                  End Site
                  {
                    OFFSET -1.78271 -1.18214 1.43049
                  }
                }
              }
              JOINT rIndex1
              {
                OFFSET -7.75947 0.938293 5.60832
                CHANNELS 3 Zrotation Xrotation Yrotation
                JOINT rIndex2
                {
                  OFFSET -2.54057 -0.884171 1.56538
                  CHANNELS 3 Zrotation Xrotation Yrotation
                  End Site
                  {
                    OFFSET -1.62519 -0.234802 1.16502
                  }
                }
              }
              JOINT rMid1
              {
                OFFSET -8.24714 1.18213 3.41376
                CHANNELS 3 Zrotation Xrotation Yrotation
                JOINT rMid2
                {
                  OFFSET -3.10165 -0.590103 1.0647
                  CHANNELS 3 Zrotation Xrotation Yrotation
                  End Site
                  {
                    OFFSET -2.48547 -0.328903 0.83742
                  }
                }
              }
              JOINT rRing1
              {
                OFFSET -8.82822 0.546677 1.51678
                CHANNELS 3 Zrotation Xrotation Yrotation
                JOINT rRing2
                {
                  OFFSET -2.60934 -0.819778 -0.0198488
                  CHANNELS 3 Zrotation Xrotation Yrotation
                  End Site
                  {
                    OFFSET -2.33842 -0.294052 0.168128
                  }
                }
              }
              JOINT rPinky1
              {
                OFFSET -8.27202 -0.0477905 -0.4584
                CHANNELS 3 Zrotation Xrotation Yrotation
                JOINT rPinky2
                {
                  OFFSET -1.82734 -0.647385 -0.700984
                  CHANNELS 3 Zrotation Xrotation Yrotation
                  End Site
                  {
                    OFFSET -1.69225 -0.51767 -0.607171
                  }
                }
              }
            }
          }
        }
      }
      JOINT lCollar
      {
        OFFSET 2.68224 19.2634 -4.8768
        CHANNELS 3 Zrotation Xrotation Yrotation
        JOINT lShldr
        {
          OFFSET 8.77824 -1.95073 1.46304
          CHANNELS 3 Zrotation Xrotation Yrotation
          JOINT lForeArm
          {
            OFFSET 28.1742 -1.7115 0.48768
            CHANNELS 3 Zrotation Xrotation Yrotation
            JOINT lHand
            {
              OFFSET 22.5879 0.773209 7.07136
              CHANNELS 3 Zrotation Xrotation Yrotation
              JOINT lThumb1
              {
                OFFSET 1.2192 -0.487915 3.41376
                CHANNELS 3 Zrotation Xrotation Yrotation
                JOINT lThumb2
                {
                  OFFSET 3.37035 -0.52449 3.41376
                  CHANNELS 3 Zrotation Xrotation Yrotation
                  End Site
                  {
                    OFFSET 1.78271 -1.18214 1.43049
                  }
                }
              }
              JOINT lIndex1
              {
                OFFSET 7.75947 0.938293 5.60832
                CHANNELS 3 Zrotation Xrotation Yrotation
                JOINT lIndex2
                {
                  OFFSET 2.54057 -0.884171 1.56538
                  CHANNELS 3 Zrotation Xrotation Yrotation
                  End Site
                  {
                    OFFSET 1.62519 -0.234802 1.16502
                  }
                }
              }
              JOINT lMid1
              {
                OFFSET 8.24714 1.18213 3.41376
                CHANNELS 3 Zrotation Xrotation Yrotation
                JOINT lMid2
                {
                  OFFSET 3.10165 -0.590103 1.0647
                  CHANNELS 3 Zrotation Xrotation Yrotation
                  End Site
                  {
                    OFFSET 2.48547 -0.328903 0.83742
                  }
                }
              }
              JOINT lRing1
              {
                OFFSET 8.82822 0.546677 1.51678
                CHANNELS 3 Zrotation Xrotation Yrotation
                JOINT lRing2
                {
                  OFFSET 2.60934 -0.819778 -0.0198488
                  CHANNELS 3 Zrotation Xrotation Yrotation
                  End Site
                  {
                    OFFSET 2.33842 -0.294052 0.168128
                  }
                }
              }
              JOINT lPinky1
              {
                OFFSET 8.27202 -0.0477905 -0.4584
                CHANNELS 3 Zrotation Xrotation Yrotation
                JOINT lPinky2
                {
                  OFFSET 1.82734 -0.647385 -0.700984
                  CHANNELS 3 Zrotation Xrotation Yrotation
                  End Site
                  {
                    OFFSET 1.69225 -0.51767 -0.607171
                  }
                }
              }
            }
          }
        }
      }
    }
  }
  JOINT rButtock
  {
    OFFSET -8.77824 4.35084 1.2192
    CHANNELS 3 Zrotation Xrotation Yrotation
    JOINT rThigh
    {
      OFFSET 0 -1.70687 -2.19456
      CHANNELS 3 Zrotation Xrotation Yrotation
      JOINT rShin
      {
        OFFSET 0 -36.8199 0.73152
        CHANNELS 3 Zrotation Xrotation Yrotation
        JOINT rFoot
        {
          OFFSET 0.73152 -45.1104 -5.12064
          CHANNELS 3 Zrotation Xrotation Yrotation
          End Site
          {
            OFFSET -1.1221 -3.69964 12.103
          }
        }
      }
    }
  }
  JOINT lButtock
  {
    OFFSET 8.77824 4.35084 1.2192
    CHANNELS 3 Zrotation Xrotation Yrotation
    JOINT lThigh
    {
      OFFSET 0 -1.70687 -2.19456
      CHANNELS 3 Zrotation Xrotation Yrotation
      JOINT lShin
      {
        OFFSET 0 -36.8199 0.73152
        CHANNELS 3 Zrotation Xrotation Yrotation
        JOINT lFoot
        {
          OFFSET -0.73152 -45.1104 -5.12064
          CHANNELS 3 Zrotation Xrotation Yrotation
          End Site
          {
            OFFSET 1.1221 -3.69964 12.103
          }
        }
      }
    }
  }
}
MOTION
Frames:	4
Frame Time:	0.00833333
3.00814 84.9173 -165.1 0.106914 -5.28399e-005 -0.00183431 -0.140626 -0.000295013 -0.00400526 -0.038767 -0.000394546 -0.00671564 1.51024e-015 -1.59028e-015 6.21202e-018 4.50372e-015 3.18055e-015 2.79541e-017 -0 0 0 -0 0 0 7.44142e-016 0 1.49089e-016 1.86644e-014 -1.11816e-016 9.93923e-016 2.74969e-013 -8.17005e-014 -1.90833e-014 3.10561e-012 8.13526e-014 2.8625e-014 7.33176e-012 3.90468e-015 4.45278e-014 1.26546e-011 3.18055e-015 7.31528e-014 7.33515e-012 3.57812e-015 2.54444e-014 7.73091 5.47488 0.417314 7.33287e-012 4.07509e-015 5.08889e-014 2.90554 0.965183 0.102902 7.34094e-012 4.27387e-015 4.29375e-014 10.2786 0.731801 0.0259123 7.32064e-012 7.55382e-015 4.77083e-014 2.22167 -0.733487 -0.20892 7.46795e-016 -3.88251e-019 -1.49089e-016 1.31508e-014 -9.93923e-017 -5.96354e-016 2.68707e-013 8.20981e-014 6.36111e-015 3.1104e-012 -8.01351e-014 2.22639e-014 7.33027e-012 5.90024e-015 4.45278e-014 1.26697e-011 9.54166e-015 8.11041e-014 7.3276e-012 7.55382e-015 6.04305e-014 -7.73091 5.47488 -0.417314 7.33038e-012 5.66536e-015 4.45278e-014 -2.90554 0.965183 -0.102902 7.32371e-012 6.16232e-015 4.69132e-014 -10.2786 0.731801 -0.0259123 7.33774e-012 9.1441e-015 3.49861e-014 -2.22167 -0.733487 0.20892 -2.03217e-016 0 -3.88251e-019 0.415457 -2.89234 -0.0363696 -0.00657582 -0.313962 -0.0578457 -0.52169 3.20536 0.125419 2.03217e-016 0 3.88251e-019 -0.629348 -3.43714 0.049731 0.00497785 0.672915 0.0432302 0.523139 2.76331 -0.11651 
3.28156 83.3495 -166.291 -0.076134 0.869086 1.51699 -0.795637 -0.169294 0.595579 0.369801 -1.48383 0.177201 1.85298 -1.23691 -0.075005 -1.73141 0.172957 -0.793644 -0 0 0 -0 0 0 9.04099e-015 -1.48419e-015 6.32461e-016 22.0427 3.41886 -0.325682 -3.18607 -1.28926 5.13508 0.000690531 0.584229 0.0820927 -2.22151e-010 1.75583e-010 2.41887e-010 -3.83447e-010 3.0329e-010 4.19571e-010 -2.22148e-010 1.75584e-010 2.41871e-010 7.73091 5.47488 0.417314 -2.22152e-010 1.75584e-010 2.41893e-010 2.90554 0.965183 0.102902 -2.22144e-010 1.75583e-010 2.41888e-010 10.2786 0.731801 0.0259123 -2.2216e-010 1.75586e-010 2.41894e-010 2.22167 -0.733487 -0.20892 9.04514e-015 -1.48519e-015 3.50203e-016 -21.7142 8.36982 -0.169947 3.40395 -1.41364 -5.45237 -0.00512938 -1.59184 0.223409 -6.30068e-011 -2.31064e-010 -1.98113e-010 -1.08275e-010 -3.99109e-010 -3.42896e-010 -6.30102e-011 -2.31063e-010 -1.981e-010 -7.73091 5.47488 -0.417314 -6.3007e-011 -2.31065e-010 -1.98113e-010 -2.90554 0.965183 -0.102902 -6.30126e-011 -2.31065e-010 -1.98112e-010 -10.2786 0.731801 -0.0259123 -6.30001e-011 -2.31062e-010 -1.9812e-010 -2.22167 -0.733487 0.20892 -2.03217e-016 0 -3.88251e-019 0.0745045 -6.23332 -0.556243 0.0189197 8.43197 0.104465 -1.14369 -0.573703 -5.9307 2.03217e-016 0 3.88251e-019 0.0831291 -6.17462 -0.461344 -0.00901244 8.10684 -0.0808111 0.816878 -0.52266 3.6806 
3.28985 83.3507 -166.29 -0.319733 1.78613 3.12451 -1.48668 -0.345324 1.22438 0.818731 -3.05247 0.370895 3.8125 -2.54879 -0.149948 -3.56343 0.352337 -1.62596 -0 0 0 -0 0 0 1.81388e-014 -2.63288e-015 2.23322e-015 45.3803 7.03005 -0.6708 -6.30274 -2.61691 10.5699 -0.00040532 1.20638 0.169542 -4.73827e-010 3.77997e-010 5.0455e-010 -8.17858e-010 6.52965e-010 8.75209e-010 -4.73824e-010 3.77999e-010 5.04536e-010 7.73091 5.47488 0.417314 -4.73829e-010 3.77998e-010 5.04555e-010 2.90554 0.965183 0.102902 -4.7382e-010 3.77998e-010 5.04553e-010 10.2786 0.731801 0.0259123 -4.73832e-010 3.77999e-010 5.04561e-010 2.22167 -0.733487 -0.20892 1.81468e-014 -2.63458e-015 1.96921e-015 -44.6171 17.2264 -0.361415 6.71556 -2.868 -11.2337 0.00300012 -3.28597 0.461762 -1.41462e-010 -4.81166e-010 -4.09817e-010 -2.43201e-010 -8.31085e-010 -7.09344e-010 -1.41466e-010 -4.81164e-010 -4.09807e-010 -7.73091 5.47488 -0.417314 -1.41463e-010 -4.81167e-010 -4.09817e-010 -2.90554 0.965183 -0.102902 -1.41467e-010 -4.81167e-010 -4.09816e-010 -10.2786 0.731801 -0.0259123 -1.41456e-010 -4.81166e-010 -4.09822e-010 -2.22167 -0.733487 0.20892 -2.03217e-016 0 -3.88251e-019 -0.352863 -9.76525 -1.11819 -0.01016 17.6779 0.287313 -2.66458 -4.46771 -12.3689 2.03217e-016 0 3.88251e-019 0.783197 -9.06884 -1.00858 0.0123751 15.9659 -0.218721 1.60016 -3.96192 7.71224 
3.30132 83.3509 -166.292 -0.580427 2.60004 4.55883 -2.09505 -0.507071 1.79481 1.21558 -4.45053 0.546505 5.54919 -3.71071 -0.225435 -5.17985 0.518471 -2.38102 -0 0 0 -0 0 0 2.56347e-014 -4.45258e-015 1.59921e-015 66.2463 10.2552 -0.991143 -8.87294 -3.7437 15.4351 -0.00295285 1.75267 0.246381 -6.81118e-010 5.2674e-010 7.25573e-010 -1.17565e-009 9.09864e-010 1.25857e-009 -6.81116e-010 5.26744e-010 7.25561e-010 7.73091 5.47488 0.417314 -6.81121e-010 5.26742e-010 7.25576e-010 2.90554 0.965183 0.102902 -6.81113e-010 5.26742e-010 7.25577e-010 10.2786 0.731801 0.0259123 -6.8112e-010 5.26743e-010 7.25587e-010 2.22167 -0.733487 -0.20892 2.56418e-014 -4.45481e-015 1.34879e-015 -64.9805 25.1085 -0.557052 9.41517 -4.08756 -16.395 0.021963 -4.77523 0.672301 -2.03681e-010 -6.93204e-010 -5.94429e-010 -3.50164e-010 -1.19735e-009 -1.02885e-009 -2.03686e-010 -6.93203e-010 -5.94421e-010 -7.73091 5.47488 -0.417314 -2.03682e-010 -6.93206e-010 -5.94428e-010 -2.90554 0.965183 -0.102902 -2.03685e-010 -6.93207e-010 -5.94429e-010 -10.2786 0.731801 -0.0259123 -2.03676e-010 -6.93205e-010 -5.94431e-010 -2.22167 -0.733487 0.20892 -2.03217e-016 0 -3.88251e-019 -0.79359 -12.9111 -1.62737 -0.0916922 25.9231 0.473323 -4.75974 -7.7383 -18.2133 2.03217e-016 0 3.88251e-019 1.35877 -11.6463 -1.5063 0.0662089 22.9743 -0.354592 2.70925 -6.96021 11.3589 
